<?xml version="1.0" encoding="UTF-8" standalone="no"?>
<!-- Created with Inkscape (http://www.inkscape.org/) -->

<svg
   width="210mm"
   height="297mm"
   viewBox="0 0 210 297"
   version="1.1"
   id="svg1"
   xml:space="preserve"
   inkscape:version="1.4.2 (f4327f4, 2025-05-13)"
   sodipodi:docname="vuhlop.svg"
   xmlns:inkscape="http://www.inkscape.org/namespaces/inkscape"
   xmlns:sodipodi="http://sodipodi.sourceforge.net/DTD/sodipodi-0.dtd"
   xmlns="http://www.w3.org/2000/svg"
   xmlns:svg="http://www.w3.org/2000/svg"><sodipodi:namedview
     id="namedview1"
     pagecolor="#ffffff"
     bordercolor="#000000"
     borderopacity="0.25"
     inkscape:showpageshadow="2"
     inkscape:pageopacity="0.0"
     inkscape:pagecheckerboard="0"
     inkscape:deskcolor="#d1d1d1"
     inkscape:document-units="mm"
     inkscape:zoom="2.6191077"
     inkscape:cx="484.13434"
     inkscape:cy="537.01495"
     inkscape:window-width="1920"
     inkscape:window-height="974"
     inkscape:window-x="-11"
     inkscape:window-y="-11"
     inkscape:window-maximized="1"
     inkscape:current-layer="layer1" /><defs
     id="defs1" /><g
     inkscape:label="Шар 1"
     inkscape:groupmode="layer"
     id="layer1"><g
       id="g3"
       transform="matrix(-1,0,0,1,223.57804,0)"><path
         style="fill:#b9b3b3;fill-opacity:0.628205;stroke:#172c19;stroke-width:1;stroke-dasharray:none"
         d="m 97.080611,158.9051 c 0,0 5.776009,0.9594 7.172449,-1.0102 0.89378,-1.26062 -1.65699,-3.19359 -0.90918,-4.54592 0.8716,-1.5762 3.88939,-0.5429 5.05102,-1.91939 1.35015,-1.59989 -0.12154,-4.54869 1.21224,-6.16225 1.31868,-1.59529 3.68854,-2.2997 5.75816,-2.32346 2.1951,-0.0252 4.91347,0.51801 6.16225,2.32346 0.93861,1.35702 -0.84806,3.53462 0,4.95 0.84399,1.40858 3.39816,0.98107 4.34388,2.32347 0.92155,1.30809 1.3238,3.27145 0.70714,4.74796 -0.6593,1.57859 -2.93593,1.81719 -4.14184,3.03061 -1.05408,1.06065 -1.34945,2.85884 -2.62653,3.63674 -1.1632,0.70853 -2.69049,0.78415 -4.04081,0.60612 -1.42032,-0.18726 -2.50746,-1.68941 -3.9398,-1.71734 -1.48173,-0.0289 -2.69136,1.92043 -4.14184,1.61632 -1.25842,-0.26384 -1.53964,-2.2355 -2.72755,-2.72755 -1.99105,-0.82472 -6.465304,0 -6.465304,0 z"
         id="path1"
         sodipodi:nodetypes="cssssssssssssssscc" /><path
         style="fill:#9b9292;fill-opacity:0.628205;stroke:none;stroke-width:1;stroke-dasharray:none"
         d="m 102.53571,160.82449 4.64694,-0.30306 5.75817,-2.72755 1.11122,2.12143 5.9602,-1.91939 4.54592,-0.60613 1.41429,-3.53571 0.60612,3.13163 -4.64694,2.72755 -2.02041,4.14184 -3.13163,0.20204 -4.74796,-1.41429 -4.64694,1.41429 -2.52551,-2.52551 z"
         id="path2" /></g></g></svg>
